{
	"asset":{
		"generator":"Khronos glTF Blender I/O v3.6.27",
		"version":"2.0"
	},
	"scene":0,
	"scenes":[
		{
			"name":"Scene",
			"nodes":[
				0
			]
		}
	],
	"nodes":[
		{
			"mesh":0,
			"name":"Torus.001"
		}
	],
	"meshes":[
		{
			"name":"Torus.001",
			"primitives":[
				{
					"attributes":{
						"POSITION":0,
						"NORMAL":1,
						"TEXCOORD_0":2
					},
					"indices":3
				}
			]
		}
	],
	"accessors":[
		{
			"bufferView":0,
			"componentType":5126,
			"count":1390,
			"max":[
				1.6372891664505005,
				0.6885799169540405,
				1.1272823810577393
			],
			"min":[
				-1.661031723022461,
				-0.6885799169540405,
				-1.6610316038131714
			],
			"type":"VEC3"
		},
		{
			"bufferView":1,
			"componentType":5126,
			"count":1390,
			"type":"VEC3"
		},
		{
			"bufferView":2,
			"componentType":5126,
			"count":1390,
			"type":"VEC2"
		},
		{
			"bufferView":3,
			"componentType":5123,
			"count":7440,
			"type":"SCALAR"
		}
	],
	"bufferViews":[
		{
			"buffer":0,
			"byteLength":16680,
			"byteOffset":0,
			"target":34962
		},
		{
			"buffer":0,
			"byteLength":16680,
			"byteOffset":16680,
			"target":34962
		},
		{
			"buffer":0,
			"byteLength":11120,
			"byteOffset":33360,
			"target":34962
		},
		{
			"buffer":0,
			"byteLength":14880,
			"byteOffset":44480,
			"target":34963
		}
	],
	"buffers":[
		{
			"byteLength":59360,
			"uri":"data:application/octet-stream;base64,"
		}
	]
}
