<svg width="128" height="128" viewBox="0 0 128 128" fill="none" xmlns="http://www.w3.org/2000/svg">
<g clip-path="url(#clip0_1_2)">
<rect width="128" height="128" rx="40" fill="#EBEBEB"/>
<path d="M47.23 82H31.294L28.414 94H10.75L28.414 39.28H50.974L67.87 94H50.11L47.23 82ZM39.166 51.088L33.502 71.344H44.926L39.55 51.088H39.166ZM88.3878 54.064C88.3878 55.408 89.0598 56.464 90.4038 57.232C91.8118 58 93.9878 58.832 96.9318 59.728C100.452 60.88 103.332 62 105.572 63.088C107.876 64.176 109.86 65.872 111.524 68.176C113.252 70.48 114.116 73.488 114.116 77.2C114.116 89.104 106.372 95.056 90.8838 95.056C88.3238 95.056 85.1878 94.832 81.4758 94.384C77.8278 93.936 74.4998 93.36 71.4918 92.656C71.6198 91.312 71.8758 89.36 72.2598 86.8C72.7078 84.176 73.1238 82.224 73.5078 80.944C75.7478 81.264 79.1078 81.648 83.5878 82.096C88.1318 82.544 91.5558 82.768 93.8598 82.768C95.2038 82.768 96.0038 82.672 96.2598 82.48C96.6438 82.224 96.9318 81.808 97.1238 81.232C97.3798 80.592 97.5078 80.048 97.5078 79.6C97.5078 78.32 96.8998 77.36 95.6838 76.72C94.4678 76.016 92.3878 75.184 89.4438 74.224C85.9238 73.136 83.0118 72.016 80.7078 70.864C78.4038 69.712 76.3878 67.92 74.6598 65.488C72.9318 63.056 72.0678 59.856 72.0678 55.888C72.0678 53.072 72.7078 50.32 73.9878 47.632C75.2678 44.88 76.5798 43.024 77.9238 42.064C78.9478 41.36 81.0598 40.688 84.2598 40.048C87.4598 39.408 90.4678 39.088 93.2838 39.088C100.452 39.088 106.308 39.76 110.852 41.104C110.788 42.384 110.564 44.144 110.18 46.384C109.86 48.624 109.508 50.672 109.124 52.528L106.916 52.432C98.5958 51.856 93.2838 51.568 90.9798 51.568C90.0198 51.568 89.4758 51.6 89.3478 51.664C89.0918 51.792 88.8678 52.08 88.6758 52.528C88.4838 52.976 88.3878 53.488 88.3878 54.064Z" fill="black"/>
</g>
<defs>
<clipPath id="clip0_1_2">
<rect width="128" height="128" rx="40" fill="white"/>
</clipPath>
</defs>
</svg>
